<?xml version="1.0" encoding="UTF-8"?><svg xmlns="http://www.w3.org/2000/svg" width="64" height="64" viewBox="0 0 32 32"><path fill="#C2A633" d="M16 32C7.163 32 0 24.837 0 16S7.163 0 16 0s16 7.163 16 16-7.163 16-16 16zm-5.5-15.5h3.78c.293 0 3.783.018 3.783-3.6 0-3.59-3.49-3.59-3.783-3.59H10.5v13h3.78c.293 0 4.783.037 4.783-3.8 0-3.818-4.49-2.01-4.783-2.01zm0-5.11h3c.293 0 1.783.018 1.783-1.5 0-1.482-1.49-1.5-1.783-1.5h-3v3zm0 8.11v-3h3c.293 0 2.783-.055 2.783 1.5 0 1.537-2.49 1.5-2.783 1.5h-3z"/></svg>